<mxfile host="app.diagrams.net" modified="2022-06-14T23:31:30.708Z" agent="5.0 (Macintosh; Intel Mac OS X 10_15_7) AppleWebKit/605.1.15 (KHTML, like Gecko) Version/15.5 Safari/605.1.15" etag="tch73SADdKhOpd9Xti6H" version="19.0.3" type="github">
  <diagram id="_0tGvUNwMdROcKqQ18AW" name="Page-1">
    <mxGraphModel dx="1562" dy="1036" grid="1" gridSize="10" guides="1" tooltips="1" connect="1" arrows="1" fold="1" page="1" pageScale="1" pageWidth="850" pageHeight="1100" math="0" shadow="0">
      <root>
        <mxCell id="0" />
        <mxCell id="1" parent="0" />
        <mxCell id="xNlczdVASQcMaBTktF7G-8" style="edgeStyle=orthogonalEdgeStyle;rounded=0;orthogonalLoop=1;jettySize=auto;html=1;entryX=0.5;entryY=0;entryDx=0;entryDy=0;" edge="1" parent="1" source="xNlczdVASQcMaBTktF7G-2" target="xNlczdVASQcMaBTktF7G-3">
          <mxGeometry relative="1" as="geometry" />
        </mxCell>
        <mxCell id="xNlczdVASQcMaBTktF7G-2" value="Create list of cards and dictionary of values.&lt;br&gt;Deal 2 cards to user and bot" style="rounded=1;whiteSpace=wrap;html=1;" vertex="1" parent="1">
          <mxGeometry x="335" y="130" width="160" height="80" as="geometry" />
        </mxCell>
        <mxCell id="xNlczdVASQcMaBTktF7G-5" value="Yes" style="edgeStyle=orthogonalEdgeStyle;rounded=0;orthogonalLoop=1;jettySize=auto;html=1;entryX=0;entryY=0.5;entryDx=0;entryDy=0;" edge="1" parent="1" source="xNlczdVASQcMaBTktF7G-3" target="xNlczdVASQcMaBTktF7G-4">
          <mxGeometry relative="1" as="geometry" />
        </mxCell>
        <mxCell id="xNlczdVASQcMaBTktF7G-7" value="No" style="edgeStyle=orthogonalEdgeStyle;rounded=0;orthogonalLoop=1;jettySize=auto;html=1;entryX=0.5;entryY=0;entryDx=0;entryDy=0;" edge="1" parent="1" source="xNlczdVASQcMaBTktF7G-3" target="xNlczdVASQcMaBTktF7G-6">
          <mxGeometry relative="1" as="geometry" />
        </mxCell>
        <mxCell id="xNlczdVASQcMaBTktF7G-3" value="Hit for another card" style="rhombus;whiteSpace=wrap;html=1;" vertex="1" parent="1">
          <mxGeometry x="365" y="240" width="100" height="100" as="geometry" />
        </mxCell>
        <mxCell id="xNlczdVASQcMaBTktF7G-17" style="edgeStyle=orthogonalEdgeStyle;rounded=0;orthogonalLoop=1;jettySize=auto;html=1;entryX=1;entryY=0.5;entryDx=0;entryDy=0;" edge="1" parent="1" source="xNlczdVASQcMaBTktF7G-4" target="xNlczdVASQcMaBTktF7G-2">
          <mxGeometry relative="1" as="geometry">
            <mxPoint x="580" y="160" as="targetPoint" />
            <Array as="points">
              <mxPoint x="590" y="170" />
            </Array>
          </mxGeometry>
        </mxCell>
        <mxCell id="xNlczdVASQcMaBTktF7G-4" value="gives you another card and checks if value is &amp;gt;= 21" style="rounded=1;whiteSpace=wrap;html=1;" vertex="1" parent="1">
          <mxGeometry x="520" y="260" width="120" height="60" as="geometry" />
        </mxCell>
        <mxCell id="xNlczdVASQcMaBTktF7G-10" style="edgeStyle=orthogonalEdgeStyle;rounded=0;orthogonalLoop=1;jettySize=auto;html=1;entryX=0.5;entryY=0;entryDx=0;entryDy=0;" edge="1" parent="1" source="xNlczdVASQcMaBTktF7G-6" target="xNlczdVASQcMaBTktF7G-9">
          <mxGeometry relative="1" as="geometry" />
        </mxCell>
        <mxCell id="xNlczdVASQcMaBTktF7G-6" value="Checks the value of your cards against the bot&lt;br&gt;Whomever is at 21 or closer to 21 wins" style="rounded=1;whiteSpace=wrap;html=1;" vertex="1" parent="1">
          <mxGeometry x="345" y="380" width="140" height="70" as="geometry" />
        </mxCell>
        <mxCell id="xNlczdVASQcMaBTktF7G-14" style="edgeStyle=orthogonalEdgeStyle;rounded=0;orthogonalLoop=1;jettySize=auto;html=1;entryX=0;entryY=0.5;entryDx=0;entryDy=0;" edge="1" parent="1" source="xNlczdVASQcMaBTktF7G-9" target="xNlczdVASQcMaBTktF7G-12">
          <mxGeometry relative="1" as="geometry">
            <mxPoint x="200" y="90" as="targetPoint" />
            <Array as="points">
              <mxPoint x="200" y="545" />
              <mxPoint x="200" y="65" />
            </Array>
          </mxGeometry>
        </mxCell>
        <mxCell id="xNlczdVASQcMaBTktF7G-16" style="edgeStyle=orthogonalEdgeStyle;rounded=0;orthogonalLoop=1;jettySize=auto;html=1;entryX=0.5;entryY=0;entryDx=0;entryDy=0;" edge="1" parent="1" source="xNlczdVASQcMaBTktF7G-9" target="xNlczdVASQcMaBTktF7G-15">
          <mxGeometry relative="1" as="geometry" />
        </mxCell>
        <mxCell id="xNlczdVASQcMaBTktF7G-9" value="&lt;span style=&quot;white-space: pre;&quot;&gt;&amp;nbsp;&lt;/span&gt;Do you want to play again" style="rhombus;whiteSpace=wrap;html=1;" vertex="1" parent="1">
          <mxGeometry x="360" y="490" width="110" height="110" as="geometry" />
        </mxCell>
        <mxCell id="xNlczdVASQcMaBTktF7G-13" style="edgeStyle=orthogonalEdgeStyle;rounded=0;orthogonalLoop=1;jettySize=auto;html=1;entryX=0.5;entryY=0;entryDx=0;entryDy=0;" edge="1" parent="1" source="xNlczdVASQcMaBTktF7G-12" target="xNlczdVASQcMaBTktF7G-2">
          <mxGeometry relative="1" as="geometry" />
        </mxCell>
        <mxCell id="xNlczdVASQcMaBTktF7G-12" value="Start" style="rounded=0;whiteSpace=wrap;html=1;" vertex="1" parent="1">
          <mxGeometry x="385" y="50" width="60" height="30" as="geometry" />
        </mxCell>
        <mxCell id="xNlczdVASQcMaBTktF7G-15" value="Stop" style="rounded=0;whiteSpace=wrap;html=1;" vertex="1" parent="1">
          <mxGeometry x="385" y="650" width="60" height="30" as="geometry" />
        </mxCell>
        <mxCell id="xNlczdVASQcMaBTktF7G-18" value="Potential problems:&lt;br&gt;Ace can equal 1 or 11" style="shape=callout;whiteSpace=wrap;html=1;perimeter=calloutPerimeter;" vertex="1" parent="1">
          <mxGeometry x="640" y="400" width="120" height="80" as="geometry" />
        </mxCell>
      </root>
    </mxGraphModel>
  </diagram>
</mxfile>
